<?xml version="1.0" standalone="no"?>
<!DOCTYPE svg PUBLIC "-//W3C//DTD SVG 20010904//EN"
 "http://www.w3.org/TR/2001/REC-SVG-20010904/DTD/svg10.dtd">
<svg version="1.0" xmlns="http://www.w3.org/2000/svg"
 width="2016.000000pt" height="2136.000000pt" viewBox="0 0 2016.000000 2136.000000"
 preserveAspectRatio="xMidYMid meet">

<g transform="translate(0.000000,2136.000000) scale(0.100000,-0.100000)"
fill="#000000" stroke="none">
<path d="M5555 18498 c-110 -3 -251 -13 -313 -22 -458 -63 -892 -242 -1264
-521 -550 -412 -916 -998 -1057 -1691 -70 -341 -64 71 -68 -5129 -2 -2579 -4
-4694 -4 -4700 -1 -5 -1 -14 0 -18 1 -5 4 -156 6 -335 5 -404 15 -534 55 -732
144 -717 512 -1300 1094 -1734 341 -255 720 -419 1164 -506 86 -17 164 -34
172 -37 31 -12 94 -13 978 -19 l902 -6 2 -856 c2 -822 2 -837 8 -367 9 657 21
1197 25 1213 4 9 294 12 1410 12 l1405 0 1 -157 c0 -87 2 -196 4 -243 1 -47 3
-330 5 -630 1 -300 5 -534 9 -520 4 14 9 329 10 700 2 371 4 713 4 760 l2 85
1408 3 c1121 2 1408 0 1411 -10 5 -14 12 -486 23 -1371 3 -317 9 -575 11 -572
3 3 5 103 4 223 -3 502 -2 1725 1 1728 2 2 963 4 2135 4 1172 0 2145 3 2161 6
17 4 31 10 31 13 0 4 -538 7 -1195 7 -657 -1 -1195 2 -1195 5 0 4 24 10 53 13
174 23 479 113 692 205 250 108 526 287 746 484 l96 85 308 -308 c169 -169
310 -312 314 -317 3 -4 41 -41 83 -80 52 -51 83 -73 99 -72 22 1 22 2 4 7 -11
4 -102 93 -202 197 -100 105 -272 282 -382 395 l-199 204 63 68 c82 89 158
183 237 293 203 283 366 647 438 975 12 52 25 111 30 130 4 20 9 -432 11
-1045 1 -594 3 -1102 5 -1130 11 -247 19 273 22 1430 2 905 5 1207 17 1360 2
22 3 128 4 235 l1 195 137 1 c76 1 380 2 676 3 365 1 536 4 532 11 -4 6 -12
10 -18 9 -7 -1 -308 -1 -669 0 l-658 1 0 2095 0 2095 463 1 c254 1 472 0 485
-1 12 -1 22 3 22 8 0 6 -180 10 -482 11 -265 1 -483 3 -484 4 -1 1 -4 1030 -6
2287 l-3 2285 285 5 285 5 -285 5 -285 5 -6 355 c-5 290 -10 381 -27 495 -76
497 -265 954 -553 1335 -115 152 -209 258 -311 351 -455 414 -972 648 -1574
714 -122 13 -693 16 -4624 18 -2467 1 -4575 -1 -4685 -5z m3075 -3955 l0 -696
-45 -41 -45 -42 0 -134 c0 -110 3 -137 17 -152 15 -17 41 -18 405 -18 l389 0
42 24 c101 58 62 57 1193 59 l1039 2 3 108 3 107 -116 0 c-95 0 -123 4 -154
19 -51 27 -98 82 -112 133 -17 65 -8 304 14 344 23 43 93 102 136 114 56 15
618 12 663 -4 53 -19 94 -55 120 -106 20 -39 23 -63 26 -175 4 -151 -5 -200
-50 -251 -51 -58 -80 -68 -212 -74 l-119 -5 -1 -105 -1 -105 990 -5 990 -5 76
-37 c56 -28 92 -54 136 -101 109 -117 133 -193 133 -424 l0 -163 720 0 c626 0
721 -2 726 -15 3 -8 7 -408 7 -889 2 -706 -1 -877 -11 -888 -10 -10 -156 -13
-725 -15 l-712 -2 -6 -153 c-7 -180 -28 -269 -93 -403 -52 -108 -113 -191
-200 -273 -184 -172 -396 -254 -656 -254 -274 0 -488 92 -712 307 -128 123
-210 170 -323 184 -71 10 -1180 13 -1214 4 -14 -3 -26 -32 -49 -116 -18 -62
-106 -377 -197 -702 -91 -324 -177 -630 -191 -680 -29 -105 -74 -264 -138
-490 -24 -88 -108 -387 -186 -665 -211 -751 -217 -772 -242 -797 -25 -25 -77
-65 -446 -346 -139 -105 -280 -211 -313 -234 -74 -52 -113 -56 -153 -17 l-26
27 0 1767 0 1767 52 39 c101 76 93 29 92 565 l0 469 -848 3 -848 2 2 -464 c0
-294 5 -472 11 -485 6 -12 38 -47 72 -78 l62 -57 0 -1766 0 -1767 -28 -24
c-34 -29 -71 -31 -113 -5 -37 23 -409 300 -640 477 -102 78 -167 136 -177 156
-10 18 -44 125 -76 238 -66 231 -345 1222 -480 1700 -22 80 -123 431 -223 780
l-183 635 -3 1417 c-2 1414 -2 1417 19 1472 27 74 104 157 177 193 l57 28 275
3 c174 2 279 7 287 14 10 8 13 49 13 153 l0 142 -52 39 -53 40 -3 692 c-1 380
0 692 3 692 2 0 35 -18 71 -41 320 -196 441 -311 533 -511 65 -140 364 -1041
397 -1198 10 -47 14 -148 14 -367 l0 -303 105 0 105 0 0 319 0 318 39 139 c53
185 157 517 233 739 171 504 226 581 591 827 72 48 132 88 134 88 2 0 3 -313
3 -697z"/>
<path d="M6590 14401 l0 -470 22 -16 c13 -9 39 -26 58 -38 l35 -23 0 -219 c0
-240 -3 -256 -63 -313 -57 -53 -75 -56 -389 -62 l-291 -5 -27 -25 c-51 -47
-55 -66 -55 -250 l0 -170 671 0 670 0 -3 328 -3 327 -43 135 c-148 460 -309
928 -348 1010 -38 81 -57 106 -130 177 -46 46 -89 83 -94 83 -5 0 -9 -196 -10
-469z"/>
<path d="M8337 14780 c-64 -65 -86 -97 -123 -174 -44 -94 -190 -519 -320 -936
l-67 -215 -1 -320 -1 -320 663 -3 662 -2 0 152 c0 139 11 223 35 280 6 16 -18
17 -337 20 -329 3 -345 4 -383 25 -99 53 -117 100 -123 315 -5 210 -1 232 49
279 l40 36 2 472 c1 299 -2 471 -8 471 -5 0 -45 -36 -88 -80z"/>
<path d="M11446 14182 c-4 -8 -8 -108 -7 -189 l1 -43 284 0 c250 0 285 2 290
16 10 26 7 184 -4 205 -10 18 -24 19 -285 19 -150 0 -276 -4 -279 -8z"/>
<path d="M9573 13339 c-107 -14 -189 -92 -212 -200 -15 -70 -15 -2223 0 -2305
18 -101 71 -167 164 -205 23 -9 341 -13 1360 -14 l1330 -2 70 -23 c39 -12 91
-33 116 -46 61 -31 188 -131 230 -183 76 -93 240 -190 384 -227 93 -23 264
-24 365 0 41 9 117 37 169 63 80 38 108 59 186 137 96 96 134 156 183 289 l27
72 3 1213 c2 827 -1 1225 -8 1252 -15 57 -67 119 -130 154 l-55 31 -2065 1
c-1136 0 -2088 -3 -2117 -7z m3035 -418 c43 -22 73 -53 96 -98 14 -28 16 -100
16 -645 l0 -614 -22 -44 c-13 -25 -42 -59 -66 -77 l-44 -33 -1370 0 c-1514 0
-1400 -5 -1467 64 -59 61 -60 65 -58 718 2 651 0 629 63 692 59 58 -26 55
1452 56 1320 0 1364 -1 1400 -19z m492 -726 c13 -11 19 -10 39 6 33 27 68 24
102 -10 29 -29 29 -30 29 -155 l0 -126 -30 0 -30 0 0 113 c0 100 -2 116 -19
131 -15 14 -24 15 -40 7 -18 -10 -21 -22 -23 -129 l-3 -117 -30 0 -30 0 -3
114 c-3 138 -17 166 -62 121 -18 -18 -20 -33 -20 -130 l0 -110 -30 0 -30 0 0
150 0 150 29 0 c16 0 31 -5 33 -12 3 -8 11 -7 29 5 26 19 63 15 89 -8z m315 9
c22 21 57 20 86 -3 23 -19 24 -19 48 0 32 26 64 24 98 -5 28 -24 28 -26 31
-150 l4 -126 -26 0 c-14 0 -29 0 -33 0 -5 0 -8 49 -8 108 0 78 -4 114 -14 125
-18 22 -27 21 -51 -3 -18 -18 -20 -33 -20 -131 l0 -110 -27 3 -28 3 -3 114
c-3 138 -17 166 -62 121 -18 -18 -20 -33 -20 -131 l0 -110 -27 3 -28 3 -3 147
c-3 146 -2 147 20 150 13 2 28 -2 35 -10 10 -12 14 -12 28 2z m-2705 -1062
c40 -20 80 -74 80 -109 0 -41 -28 -92 -62 -113 -31 -19 -50 -20 -292 -20
l-259 0 -39 40 c-32 34 -38 48 -38 84 0 55 34 107 80 123 23 8 114 12 265 12
200 1 235 -1 265 -17z m1463 -6 c37 -25 57 -66 57 -116 0 -32 -7 -48 -34 -78
l-34 -37 -264 -3 c-228 -3 -267 -1 -294 13 -99 53 -79 208 31 238 11 3 130 5
265 4 223 -2 248 -4 273 -21z"/>
<path d="M9854 12785 l-24 -24 0 -586 c0 -572 0 -585 20 -605 11 -11 23 -20
28 -20 4 0 605 -1 1336 -1 l1328 -1 22 21 c21 22 21 22 21 612 l0 591 -24 19
c-23 19 -57 19 -1353 19 l-1329 0 -25 -25z m609 -176 c20 -5 37 -13 37 -17 0
-5 -17 -25 -38 -45 l-39 -38 -83 2 c-80 2 -84 3 -121 37 -45 39 -47 46 -19 58
29 13 217 15 263 3z m576 -3 c19 -12 12 -33 -23 -64 -32 -28 -40 -30 -120 -31
-85 -2 -86 -1 -126 35 -46 41 -42 61 13 66 57 5 244 1 256 -6z m634 5 c45 -2
46 -29 1 -67 -38 -33 -42 -34 -124 -34 l-86 0 -39 40 c-41 42 -40 55 5 62 22
3 159 3 243 -1z m583 -12 c13 -11 10 -17 -23 -51 l-37 -38 -88 0 -89 0 -42 39
c-23 22 -38 43 -34 48 22 21 288 23 313 2z m-2024 -226 c-3 -112 -4 -119 -29
-145 -30 -31 -54 -35 -73 -13 -15 18 -5 308 12 339 9 17 13 15 51 -23 l41 -41
-2 -117z m1208 1 l0 -122 -31 -26 c-35 -30 -51 -32 -69 -11 -15 18 -5 308 12
339 9 17 13 15 49 -20 l39 -38 0 -122z m-889 164 c8 -16 10 -64 5 -167 -5
-121 -9 -148 -23 -158 -23 -18 -33 -16 -60 9 -22 20 -23 29 -23 142 l0 120 37
38 c43 44 48 45 64 16z m203 -17 l39 -40 -7 -110 c-3 -60 -9 -116 -12 -124 -3
-8 -21 -23 -40 -33 -57 -31 -63 -13 -57 164 5 137 13 182 31 182 5 0 25 -18
46 -39z m346 20 c9 -18 5 -253 -6 -307 -6 -31 -34 -38 -64 -16 -24 18 -25 23
-28 142 l-3 123 38 39 c42 44 48 45 63 19z m656 7 c4 -6 6 -81 5 -167 -1 -132
-4 -158 -18 -168 -22 -17 -26 -17 -57 8 -26 20 -26 23 -26 142 l0 121 37 38
c40 41 48 44 59 26z m209 -29 l37 -41 -7 -112 c-6 -92 -11 -115 -28 -133 -26
-29 -54 -38 -72 -23 -12 10 -14 39 -9 169 6 143 13 181 34 181 4 0 24 -19 45
-41z m345 20 c7 -13 10 -54 6 -112 -3 -51 -5 -118 -5 -150 -1 -51 -4 -59 -26
-69 -22 -10 -29 -8 -50 12 -24 23 -25 29 -25 144 l0 120 37 38 c43 44 48 45
63 17z m-347 -427 c16 -18 18 -35 15 -137 l-3 -116 -37 -34 c-20 -19 -41 -35
-47 -35 -19 0 -24 51 -18 188 8 173 28 202 90 134z m-1769 7 c26 -21 27 -23
25 -132 l-1 -111 -44 -45 c-59 -62 -65 -51 -63 119 2 181 20 219 83 169z m336
7 c8 -11 11 -59 8 -165 -4 -180 -10 -194 -65 -138 l-38 37 3 112 c3 106 5 115
30 141 29 30 44 34 62 13z m214 -7 c25 -20 26 -23 26 -136 l0 -115 -39 -39
c-21 -22 -44 -39 -50 -39 -19 0 -24 48 -19 181 5 105 9 133 23 149 23 25 26
25 59 -1z m336 6 c16 -19 15 -249 -1 -310 l-11 -39 -44 46 -44 47 6 108 c6 97
9 111 32 136 29 31 44 34 62 12z m324 -6 c25 -20 26 -23 26 -136 l0 -116 -41
-39 c-22 -21 -46 -37 -52 -35 -8 2 -13 50 -15 149 -2 134 -1 147 18 171 26 32
30 33 64 6z m336 6 c23 -27 10 -318 -14 -342 -3 -4 -24 13 -45 37 l-39 44 5
111 c5 100 8 112 31 138 29 31 44 34 62 12z m550 1 c8 -11 11 -59 8 -165 -4
-181 -11 -197 -64 -137 l-34 39 0 111 c0 106 1 111 27 138 30 31 45 35 63 14z
m-1840 -331 c28 -29 31 -37 20 -50 -18 -21 -266 -22 -296 -1 -18 14 -18 16 15
50 l35 36 96 0 96 0 34 -35z m549 1 c57 -59 44 -66 -117 -66 -104 0 -143 4
-158 14 -18 14 -18 16 15 50 l35 36 96 0 96 0 33 -34z m251 -16 l0 -50 -50 0
-50 0 0 43 c0 24 3 47 7 50 3 4 26 7 50 7 l43 0 0 -50z m411 14 c33 -34 33
-36 15 -50 -15 -10 -52 -14 -146 -14 -94 0 -131 4 -146 14 -18 14 -18 16 15
50 l35 36 96 0 96 0 35 -36z m546 4 c62 -60 48 -68 -126 -68 -91 0 -132 4
-146 14 -17 12 -16 15 19 50 l38 36 91 0 c89 0 92 -1 124 -32z"/>
<path d="M5880 11910 l0 -700 734 0 735 0 -2 239 c-1 250 2 271 43 271 9 0 25
-8 34 -19 15 -17 17 -45 15 -257 l-1 -239 103 1 104 0 5 153 c5 144 6 155 27
168 19 13 24 12 43 -7 20 -20 21 -30 19 -168 l-2 -146 104 0 104 0 3 189 c2
158 5 192 19 207 21 23 28 23 53 -2 19 -19 20 -33 20 -208 l0 -188 105 0 105
0 0 151 c0 134 2 154 18 168 24 22 35 21 55 -1 14 -16 17 -43 17 -170 l0 -151
105 0 105 -1 0 244 c0 223 2 244 18 259 23 21 36 21 56 1 14 -13 16 -51 16
-259 l0 -244 103 2 102 2 5 159 c5 154 6 159 28 167 17 6 27 4 43 -12 18 -18
20 -32 18 -167 l-1 -147 106 0 106 0 0 703 0 703 -106 -3 -106 -3 -2 -152 c-1
-143 -2 -154 -23 -175 -22 -21 -23 -21 -43 -3 -18 17 -20 30 -20 177 l0 158
-105 0 -105 0 0 -224 c0 -123 -3 -232 -6 -240 -11 -30 -43 -40 -65 -20 -18 16
-19 33 -19 251 l0 234 -106 -3 -106 -3 1 -152 2 -152 -26 -17 c-24 -16 -27
-16 -45 1 -18 17 -20 31 -20 172 l0 153 -105 0 -105 0 0 -180 c0 -169 -1 -181
-21 -201 -18 -18 -23 -19 -42 -6 -21 14 -22 22 -25 201 l-2 187 -106 -3 -106
-3 1 -142 c2 -153 -5 -183 -42 -183 -43 0 -47 15 -47 177 l0 154 -105 -3 -105
-3 -2 -231 c-3 -242 -7 -264 -49 -264 -41 0 -46 32 -44 273 l3 227 -734 0
-734 0 0 -700z"/>
<path d="M14150 11905 l0 -706 133 3 132 3 3 246 c3 271 6 284 57 261 24 -11
25 -15 26 -114 0 -57 1 -168 2 -248 l2 -145 105 0 105 0 3 154 c3 158 8 181
43 181 40 0 50 -38 48 -191 l-1 -144 106 -3 106 -3 0 190 c0 159 3 192 16 205
8 9 22 16 29 16 7 0 21 -7 29 -16 13 -13 16 -46 16 -205 l0 -189 150 0 150 0
0 705 0 705 -150 0 -150 0 0 -173 c0 -156 -2 -176 -18 -190 -24 -22 -35 -21
-55 1 -14 16 -17 45 -17 190 l0 172 -105 0 -105 0 -1 -102 c-2 -172 -6 -209
-23 -226 -12 -13 -20 -13 -41 -4 l-25 12 0 160 0 160 -110 0 -110 0 4 -162 c5
-229 -2 -316 -25 -329 -13 -6 -26 -6 -39 1 -19 10 -20 21 -20 250 l0 240 -135
0 -135 0 0 -705z"/>
<path d="M5882 10693 l3 -318 43 -150 c101 -350 235 -824 248 -875 8 -30 26
-91 39 -135 13 -44 49 -170 80 -280 31 -110 74 -263 95 -340 57 -204 274 -967
321 -1130 79 -271 109 -368 120 -382 13 -15 567 -433 574 -433 3 0 5 716 5
1591 l0 1591 -45 41 c-50 43 -88 109 -99 170 -4 21 -7 247 -7 503 l0 464 -690
0 -690 0 3 -317z"/>
<path d="M9350 10272 c0 -275 -6 -302 -91 -385 l-60 -59 2 -1589 c0 -874 4
-1589 8 -1589 10 0 575 430 583 444 7 13 138 459 183 626 12 47 69 249 125
450 57 201 111 394 120 430 32 115 205 730 260 920 18 62 109 384 151 535 57
205 91 332 92 345 2 13 -72 15 -588 16 -623 2 -634 3 -728 50 -27 13 -51 24
-53 24 -2 0 -4 -98 -4 -218z"/>
<path d="M17998 15223 c6 -2 18 -2 25 0 6 3 1 5 -13 5 -14 0 -19 -2 -12 -5z"/>
<path d="M18128 15223 c7 -3 16 -2 19 1 4 3 -2 6 -13 5 -11 0 -14 -3 -6 -6z"/>
<path d="M18320 10636 c0 -2 7 -6 15 -10 8 -3 15 -1 15 4 0 6 -7 10 -15 10 -8
0 -15 -2 -15 -4z"/>
<path d="M18366 10628 c3 -5 10 -6 15 -3 13 9 11 12 -6 12 -8 0 -12 -4 -9 -9z"/>
<path d="M18722 7790 c0 -14 2 -19 5 -12 2 6 2 18 0 25 -3 6 -5 1 -5 -13z"/>
<path d="M18722 7725 c0 -16 2 -22 5 -12 2 9 2 23 0 30 -3 6 -5 -1 -5 -18z"/>
<path d="M18723 7655 c0 -22 2 -30 4 -17 2 12 2 30 0 40 -3 9 -5 -1 -4 -23z"/>
<path d="M18724 7345 c0 -148 2 -211 3 -138 2 72 2 194 0 270 -1 76 -3 17 -3
-132z"/>
<path d="M18722 7050 c0 -14 2 -19 5 -12 2 6 2 18 0 25 -3 6 -5 1 -5 -13z"/>
<path d="M18734 6615 c0 -104 2 -146 3 -92 2 54 2 139 0 190 -1 51 -3 7 -3
-98z"/>
<path d="M18730 6185 c0 -98 3 -176 6 -172 7 6 5 339 -1 346 -3 2 -5 -76 -5
-174z"/>
<path d="M18730 5989 c0 -5 5 -7 10 -4 6 3 10 8 10 11 0 2 -4 4 -10 4 -5 0
-10 -5 -10 -11z"/>
<path d="M18738 5738 c4 -382 8 -413 10 -80 1 171 -1 312 -5 312 -5 0 -7 -105
-5 -232z"/>
<path d="M18742 5305 c0 -16 2 -22 5 -12 2 9 2 23 0 30 -3 6 -5 -1 -5 -18z"/>
<path d="M18753 4825 c0 -22 2 -30 4 -17 2 12 2 30 0 40 -3 9 -5 -1 -4 -23z"/>
<path d="M18752 4755 c0 -16 2 -22 5 -12 2 9 2 23 0 30 -3 6 -5 -1 -5 -18z"/>
<path d="M18752 4695 c0 -16 2 -22 5 -12 2 9 2 23 0 30 -3 6 -5 -1 -5 -18z"/>
<path d="M18753 4610 c0 -25 2 -35 4 -22 2 12 2 32 0 45 -2 12 -4 2 -4 -23z"/>
<path d="M18752 4535 c0 -16 2 -22 5 -12 2 9 2 23 0 30 -3 6 -5 -1 -5 -18z"/>
<path d="M18752 4440 c0 -19 2 -27 5 -17 2 9 2 25 0 35 -3 9 -5 1 -5 -18z"/>
<path d="M18762 4150 c0 -14 2 -19 5 -12 2 6 2 18 0 25 -3 6 -5 1 -5 -13z"/>
<path d="M18764 3850 c0 -151 2 -213 3 -137 2 75 2 199 0 275 -1 75 -3 13 -3
-138z"/>
<path d="M5128 3063 c7 -3 16 -2 19 1 4 3 -2 6 -13 5 -11 0 -14 -3 -6 -6z"/>
<path d="M5173 3063 c9 -2 23 -2 30 0 6 3 -1 5 -18 5 -16 0 -22 -2 -12 -5z"/>
<path d="M17548 3063 c122 -2 322 -2 445 0 122 1 22 2 -223 2 -245 0 -345 -1
-222 -2z"/>
<path d="M18258 3063 c23 -2 59 -2 80 0 20 2 1 4 -43 4 -44 0 -61 -2 -37 -4z"/>
<path d="M17305 2670 c0 -201 1 -283 2 -183 2 101 2 265 0 366 -1 100 -2 18
-2 -183z"/>
<path d="M17358 3004 c-8 -8 271 -294 286 -294 12 0 14 -3 -156 173 -68 70
-127 125 -130 121z"/>
<path d="M18772 2960 c0 -14 2 -19 5 -12 2 6 2 18 0 25 -3 6 -5 1 -5 -13z"/>
<path d="M18773 2880 c0 -30 2 -43 4 -27 2 15 2 39 0 55 -2 15 -4 2 -4 -28z"/>
<path d="M18772 2800 c0 -14 2 -19 5 -12 2 6 2 18 0 25 -3 6 -5 1 -5 -13z"/>
<path d="M18772 2690 c0 -14 2 -19 5 -12 2 6 2 18 0 25 -3 6 -5 1 -5 -13z"/>
<path d="M17660 2685 c7 -8 17 -15 22 -15 6 0 5 7 -2 15 -7 8 -17 15 -22 15
-6 0 -5 -7 2 -15z"/>
<path d="M18771 2644 c0 -11 3 -14 6 -6 3 7 2 16 -1 19 -3 4 -6 -2 -5 -13z"/>
<path d="M17302 2275 c0 -16 2 -22 5 -12 2 9 2 23 0 30 -3 6 -5 -1 -5 -18z"/>
<path d="M17302 2210 c0 -19 2 -27 5 -17 2 9 2 25 0 35 -3 9 -5 1 -5 -18z"/>
<path d="M17302 2115 c0 -16 2 -22 5 -12 2 9 2 23 0 30 -3 6 -5 -1 -5 -18z"/>
<path d="M17301 2054 c0 -11 3 -14 6 -6 3 7 2 16 -1 19 -3 4 -6 -2 -5 -13z"/>
<path d="M10082 1440 c0 -19 2 -27 5 -17 2 9 2 25 0 35 -3 9 -5 1 -5 -18z"/>
<path d="M10081 1384 c0 -11 3 -14 6 -6 3 7 2 16 -1 19 -3 4 -6 -2 -5 -13z"/>
<path d="M12955 1071 c-3 -5 -2 -12 3 -15 5 -3 9 1 9 9 0 17 -3 19 -12 6z"/>
<path d="M12950 1016 c0 -31 6 -34 13 -6 3 11 1 23 -4 26 -5 3 -9 -6 -9 -20z"/>
<path d="M7211 954 c0 -11 3 -14 6 -6 3 7 2 16 -1 19 -3 4 -6 -2 -5 -13z"/>
<path d="M12956 953 c-6 -14 -5 -15 5 -6 7 7 10 15 7 18 -3 3 -9 -2 -12 -12z"/>
<path d="M17301 944 c0 -11 3 -14 6 -6 3 7 2 16 -1 19 -3 4 -6 -2 -5 -13z"/>
<path d="M7211 854 c0 -11 3 -14 6 -6 3 7 2 16 -1 19 -3 4 -6 -2 -5 -13z"/>
<path d="M12962 850 c0 -14 2 -19 5 -12 2 6 2 18 0 25 -3 6 -5 1 -5 -13z"/>
<path d="M7213 775 c0 -27 2 -38 4 -22 2 15 2 37 0 50 -2 12 -4 0 -4 -28z"/>
<path d="M12961 624 c0 -11 3 -14 6 -6 3 7 2 16 -1 19 -3 4 -6 -2 -5 -13z"/>
<path d="M12963 525 c0 -44 2 -61 4 -37 2 23 2 59 0 80 -2 20 -4 1 -4 -43z"/>
<path d="M12962 320 c0 -19 2 -27 5 -17 2 9 2 25 0 35 -3 9 -5 1 -5 -18z"/>
<path d="M12963 205 c0 -44 2 -61 4 -37 2 23 2 59 0 80 -2 20 -4 1 -4 -43z"/>
</g>
</svg>
