<svg xmlns="http://www.w3.org/2000/svg" viewBox="0 0 450 450" fill="none">
  <path fill="#071b3d" d="M192.77 90.336c-.508.106-1.035.297-1.52.508l-38.645 16.031c-3.984 1.668-6.03 6.391-4.387 10.461l1.856 5.235c1.222 2.992 4.2 4.89 7.426 4.89 1.055 0 2.067-.273 3.04-.671l4.046-1.688 3.04 7.086 30.207-12.32-3.207-7.254 4.555-1.856c1.984-.824 3.586-2.406 4.39-4.39.802-1.962.653-3.985-.17-5.907l-1.69-5.398c-1.476-3.418-5.418-5.398-8.941-4.727ZM210.32 127.46c-2.238-.168-4.41.634-7.426 1.86l-32.062 13.16c-8.797 3.504-10.168 6.73-6.582 15.695l23.117 55.688 54.172-21.601-23.289-56.532c-1.477-3.734-2.657-6.453-5.739-7.762-.758-.336-1.453-.441-2.191-.508ZM155.645 165.43c-23.078 13.671-33.477 42.589-23.121 68.175l7.593 18.059c8.989-9.938 21.856-16.372 36.282-16.372.191 0 .316.168.507.168l-6.75-17.21c-1.879-4.661-1.012-9.81 1.688-13.669ZM245.586 202.387l-54.168 21.601 3.375 8.27c.55 1.304 1.582 2.32 2.871 2.867l15.355 6.582c.676.293 1.477.504 2.192.504.675 0 1.394-.25 2.027-.504l22.105-8.778c1.328-.527 2.3-1.558 2.867-2.867l6.75-15.523c.57-1.332.55-2.723 0-4.051ZM281.7 237.992c-.231.043-.465.105-.676.172-.46.062-.906.168-1.347.336l-69.356 28.52c-6.352-12.34-19.113-20.926-33.922-20.926-21.094 0-38.305 17.211-38.305 38.304 0 21.094 17.21 38.309 38.305 38.309 21.094 0 38.308-17.215 38.308-38.309 0-2.465-.402-4.914-.844-7.254l69.863-28.52c2.93-.57 4.87-3.394 4.3-6.328-.57-2.933-3.395-4.87-6.328-4.304ZM283.555 288.617c-2.508 0-4.914.445-7.254 1.352l-53.324 20.586c-1.5.594-3.293.613-5.234.172-2.762 4.344-6.156 8.203-10.125 11.472h91.297c1.266-1.477 2.383-3.058 3.203-4.894 2.215-4.977 2.469-10.442.508-15.524-3.016-7.804-10.696-13.164-19.071-13.164ZM143.324 333c-8.563 0-15.523 7.277-15.523 16.2v5.402c0 2.992 2.425 5.398 5.398 5.398H316.8c2.996 0 5.398-2.406 5.398-5.398V349.2c0-8.922-6.96-16.2-15.523-16.2Z"/>
</svg>
