<svg xmlns="http://www.w3.org/2000/svg" xmlns:xlink="http://www.w3.org/1999/xlink" width="600" zoomAndPan="magnify" viewBox="0 0 450 449.999984" height="600" preserveAspectRatio="xMidYMid meet" version="1.0"><defs><clipPath id="0308c677b0"><path d="M 122.039062 236.679688 L 212.710938 236.679688 L 212.710938 327.351562 L 122.039062 327.351562 Z M 122.039062 236.679688 " clip-rule="nonzero"/></clipPath><clipPath id="f57ba00085"><path d="M 167.375 236.679688 C 142.335938 236.679688 122.039062 256.976562 122.039062 282.015625 C 122.039062 307.054688 142.335938 327.351562 167.375 327.351562 C 192.414062 327.351562 212.710938 307.054688 212.710938 282.015625 C 212.710938 256.976562 192.414062 236.679688 167.375 236.679688 Z M 167.375 236.679688 " clip-rule="nonzero"/></clipPath><clipPath id="2be35fff39"><path d="M 0.0390625 0.679688 L 90.710938 0.679688 L 90.710938 91.351562 L 0.0390625 91.351562 Z M 0.0390625 0.679688 " clip-rule="nonzero"/></clipPath><clipPath id="ce04e3d5be"><path d="M 45.375 0.679688 C 20.335938 0.679688 0.0390625 20.976562 0.0390625 46.015625 C 0.0390625 71.054688 20.335938 91.351562 45.375 91.351562 C 70.414062 91.351562 90.710938 71.054688 90.710938 46.015625 C 90.710938 20.976562 70.414062 0.679688 45.375 0.679688 Z M 45.375 0.679688 " clip-rule="nonzero"/></clipPath><clipPath id="1226840cc5"><rect x="0" width="91" y="0" height="92"/></clipPath><clipPath id="44bc0499c6"><path d="M 249.59375 236.679688 L 340.269531 236.679688 L 340.269531 327.351562 L 249.59375 327.351562 Z M 249.59375 236.679688 " clip-rule="nonzero"/></clipPath><clipPath id="60866c63b3"><path d="M 294.929688 236.679688 C 269.894531 236.679688 249.59375 256.976562 249.59375 282.015625 C 249.59375 307.054688 269.894531 327.351562 294.929688 327.351562 C 319.96875 327.351562 340.269531 307.054688 340.269531 282.015625 C 340.269531 256.976562 319.96875 236.679688 294.929688 236.679688 Z M 294.929688 236.679688 " clip-rule="nonzero"/></clipPath><clipPath id="c3f38ac9dc"><path d="M 0.59375 0.679688 L 91.269531 0.679688 L 91.269531 91.351562 L 0.59375 91.351562 Z M 0.59375 0.679688 " clip-rule="nonzero"/></clipPath><clipPath id="066caca229"><path d="M 45.929688 0.679688 C 20.894531 0.679688 0.59375 20.976562 0.59375 46.015625 C 0.59375 71.054688 20.894531 91.351562 45.929688 91.351562 C 70.96875 91.351562 91.269531 71.054688 91.269531 46.015625 C 91.269531 20.976562 70.96875 0.679688 45.929688 0.679688 Z M 45.929688 0.679688 " clip-rule="nonzero"/></clipPath><clipPath id="9bbaebb8fb"><rect x="0" width="92" y="0" height="92"/></clipPath><clipPath id="d3e224dd58"><path d="M 191.433594 130.371094 L 249.59375 130.371094 L 249.59375 197.617188 L 191.433594 197.617188 Z M 191.433594 130.371094 " clip-rule="nonzero"/></clipPath><clipPath id="958bb85841"><path d="M 220.515625 130.371094 C 204.453125 130.371094 191.433594 145.398438 191.433594 163.9375 C 191.433594 182.472656 204.453125 197.503906 220.515625 197.503906 C 236.574219 197.503906 249.59375 182.472656 249.59375 163.9375 C 249.59375 145.398438 236.574219 130.371094 220.515625 130.371094 Z M 220.515625 130.371094 " clip-rule="nonzero"/></clipPath><clipPath id="12c0fdd60c"><path d="M 0.433594 0.371094 L 58.59375 0.371094 L 58.59375 67.519531 L 0.433594 67.519531 Z M 0.433594 0.371094 " clip-rule="nonzero"/></clipPath><clipPath id="76b9335af5"><path d="M 29.515625 0.371094 C 13.453125 0.371094 0.433594 15.398438 0.433594 33.9375 C 0.433594 52.472656 13.453125 67.503906 29.515625 67.503906 C 45.574219 67.503906 58.59375 52.472656 58.59375 33.9375 C 58.59375 15.398438 45.574219 0.371094 29.515625 0.371094 Z M 29.515625 0.371094 " clip-rule="nonzero"/></clipPath><clipPath id="a3b626271e"><rect x="0" width="59" y="0" height="68"/></clipPath><clipPath id="645150eb0f"><path d="M 189.980469 130.371094 L 258.566406 130.371094 L 258.566406 198.957031 L 189.980469 198.957031 Z M 189.980469 130.371094 " clip-rule="nonzero"/></clipPath><clipPath id="31c30e6caf"><path d="M 224.273438 130.371094 C 205.332031 130.371094 189.980469 145.722656 189.980469 164.664062 C 189.980469 183.601562 205.332031 198.957031 224.273438 198.957031 C 243.210938 198.957031 258.566406 183.601562 258.566406 164.664062 C 258.566406 145.722656 243.210938 130.371094 224.273438 130.371094 Z M 224.273438 130.371094 " clip-rule="nonzero"/></clipPath><clipPath id="ea1c88e047"><path d="M 0.980469 0.371094 L 69.566406 0.371094 L 69.566406 68.957031 L 0.980469 68.957031 Z M 0.980469 0.371094 " clip-rule="nonzero"/></clipPath><clipPath id="2c2dbba89a"><path d="M 35.273438 0.371094 C 16.332031 0.371094 0.980469 15.722656 0.980469 34.664062 C 0.980469 53.601562 16.332031 68.957031 35.273438 68.957031 C 54.210938 68.957031 69.566406 53.601562 69.566406 34.664062 C 69.566406 15.722656 54.210938 0.371094 35.273438 0.371094 Z M 35.273438 0.371094 " clip-rule="nonzero"/></clipPath><clipPath id="88e2b2f96b"><rect x="0" width="70" y="0" height="69"/></clipPath></defs><path fill="#071b3d" d="M 224.996094 132.9375 L 254.925781 179.8125 L 194.496094 179.8125 L 224.996094 132.9375 M 224.996094 100.746094 C 224.023438 100.785156 223.074219 100.945312 222.140625 101.21875 C 221.210938 101.496094 220.328125 101.878906 219.488281 102.371094 C 218.652344 102.863281 217.886719 103.449219 217.195312 104.128906 C 216.5 104.8125 215.902344 105.566406 215.394531 106.394531 L 164 185.460938 C 163.574219 186.339844 163.253906 187.257812 163.035156 188.210938 C 162.816406 189.164062 162.707031 190.128906 162.707031 191.109375 C 162.707031 192.085938 162.816406 193.050781 163.035156 194.003906 C 163.253906 194.957031 163.574219 195.875 164 196.757812 C 164.464844 197.621094 165.039062 198.40625 165.71875 199.113281 C 166.398438 199.824219 167.164062 200.425781 168.007812 200.921875 C 168.855469 201.421875 169.753906 201.796875 170.703125 202.046875 C 171.652344 202.296875 172.617188 202.417969 173.601562 202.402344 L 275.824219 202.402344 C 276.792969 202.363281 277.746094 202.203125 278.675781 201.929688 C 279.609375 201.652344 280.492188 201.269531 281.328125 200.777344 C 282.164062 200.285156 282.929688 199.699219 283.625 199.019531 C 284.316406 198.339844 284.917969 197.582031 285.425781 196.757812 C 285.984375 195.921875 286.410156 195.019531 286.699219 194.058594 C 286.992188 193.097656 287.136719 192.113281 287.136719 191.109375 C 287.136719 190.101562 286.992188 189.121094 286.699219 188.15625 C 286.410156 187.195312 285.984375 186.296875 285.425781 185.460938 L 234.597656 106.394531 C 234.128906 105.527344 233.558594 104.742188 232.875 104.035156 C 232.195312 103.328125 231.433594 102.722656 230.585938 102.226562 C 229.738281 101.726562 228.839844 101.351562 227.890625 101.101562 C 226.941406 100.851562 225.976562 100.730469 224.996094 100.746094 Z M 224.996094 100.746094 " fill-opacity="1" fill-rule="nonzero"/><path fill="#071b3d" d="M 332.300781 332.300781 L 253.234375 332.300781 C 252.492188 332.300781 251.757812 332.230469 251.03125 332.082031 C 250.300781 331.9375 249.597656 331.726562 248.910156 331.441406 C 248.226562 331.15625 247.574219 330.808594 246.957031 330.398438 C 246.339844 329.984375 245.769531 329.515625 245.246094 328.992188 C 244.722656 328.46875 244.253906 327.898438 243.839844 327.28125 C 243.429688 326.664062 243.082031 326.011719 242.796875 325.328125 C 242.515625 324.644531 242.300781 323.9375 242.15625 323.210938 C 242.011719 322.480469 241.9375 321.746094 241.9375 321.003906 L 241.9375 241.9375 C 241.9375 241.195312 242.011719 240.460938 242.15625 239.734375 C 242.300781 239.007812 242.515625 238.300781 242.796875 237.613281 C 243.082031 236.929688 243.429688 236.277344 243.839844 235.664062 C 244.253906 235.046875 244.722656 234.476562 245.246094 233.949219 C 245.769531 233.425781 246.339844 232.957031 246.957031 232.546875 C 247.574219 232.132812 248.226562 231.785156 248.910156 231.503906 C 249.597656 231.21875 250.300781 231.003906 251.03125 230.859375 C 251.757812 230.714844 252.492188 230.640625 253.234375 230.640625 L 332.300781 230.640625 C 333.042969 230.640625 333.777344 230.714844 334.503906 230.859375 C 335.230469 231.003906 335.9375 231.21875 336.625 231.503906 C 337.308594 231.785156 337.960938 232.132812 338.578125 232.546875 C 339.191406 232.957031 339.761719 233.425781 340.289062 233.949219 C 340.8125 234.476562 341.28125 235.046875 341.691406 235.664062 C 342.105469 236.277344 342.453125 236.929688 342.738281 237.613281 C 343.019531 238.300781 343.234375 239.007812 343.378906 239.734375 C 343.523438 240.460938 343.597656 241.195312 343.597656 241.9375 L 343.597656 321.003906 C 343.597656 321.746094 343.523438 322.480469 343.378906 323.210938 C 343.234375 323.9375 343.019531 324.644531 342.738281 325.328125 C 342.453125 326.011719 342.105469 326.664062 341.691406 327.28125 C 341.28125 327.898438 340.8125 328.46875 340.289062 328.992188 C 339.761719 329.515625 339.191406 329.984375 338.578125 330.398438 C 337.960938 330.808594 337.308594 331.15625 336.625 331.441406 C 335.9375 331.726562 335.230469 331.9375 334.503906 332.082031 C 333.777344 332.230469 333.042969 332.300781 332.300781 332.300781 Z M 264.527344 309.710938 L 321.003906 309.710938 L 321.003906 253.234375 L 264.527344 253.234375 Z M 264.527344 309.710938 " fill-opacity="1" fill-rule="nonzero"/><path fill="#071b3d" d="M 162.871094 247.585938 C 163.980469 247.585938 165.085938 247.640625 166.191406 247.75 C 167.296875 247.855469 168.390625 248.019531 169.480469 248.238281 C 170.570312 248.453125 171.644531 248.722656 172.707031 249.042969 C 173.769531 249.367188 174.8125 249.738281 175.835938 250.164062 C 176.863281 250.589844 177.863281 251.0625 178.84375 251.585938 C 179.824219 252.109375 180.773438 252.679688 181.695312 253.296875 C 182.617188 253.914062 183.507812 254.574219 184.367188 255.277344 C 185.226562 255.980469 186.046875 256.726562 186.832031 257.511719 C 187.617188 258.296875 188.359375 259.117188 189.0625 259.972656 C 189.769531 260.832031 190.429688 261.722656 191.046875 262.644531 C 191.660156 263.566406 192.230469 264.519531 192.753906 265.496094 C 193.277344 266.476562 193.753906 267.480469 194.175781 268.503906 C 194.601562 269.527344 194.976562 270.574219 195.296875 271.636719 C 195.617188 272.695312 195.886719 273.773438 196.105469 274.859375 C 196.320312 275.949219 196.484375 277.046875 196.59375 278.148438 C 196.703125 279.253906 196.757812 280.363281 196.757812 281.472656 C 196.757812 282.582031 196.703125 283.6875 196.59375 284.792969 C 196.484375 285.898438 196.320312 286.992188 196.105469 288.082031 C 195.886719 289.171875 195.617188 290.246094 195.296875 291.308594 C 194.976562 292.371094 194.601562 293.414062 194.175781 294.4375 C 193.753906 295.464844 193.277344 296.464844 192.753906 297.445312 C 192.230469 298.425781 191.660156 299.375 191.046875 300.296875 C 190.429688 301.21875 189.769531 302.109375 189.0625 302.96875 C 188.359375 303.828125 187.617188 304.648438 186.832031 305.433594 C 186.046875 306.21875 185.226562 306.960938 184.367188 307.667969 C 183.507812 308.371094 182.617188 309.03125 181.695312 309.648438 C 180.773438 310.261719 179.824219 310.832031 178.84375 311.355469 C 177.863281 311.878906 176.863281 312.355469 175.835938 312.777344 C 174.8125 313.203125 173.769531 313.578125 172.707031 313.898438 C 171.644531 314.222656 170.570312 314.492188 169.480469 314.707031 C 168.390625 314.921875 167.296875 315.085938 166.191406 315.195312 C 165.085938 315.304688 163.980469 315.359375 162.871094 315.359375 C 161.761719 315.359375 160.652344 315.304688 159.546875 315.195312 C 158.445312 315.085938 157.347656 314.921875 156.257812 314.707031 C 155.171875 314.492188 154.09375 314.222656 153.035156 313.898438 C 151.972656 313.578125 150.925781 313.203125 149.902344 312.777344 C 148.875 312.355469 147.875 311.878906 146.894531 311.355469 C 145.917969 310.832031 144.964844 310.261719 144.042969 309.648438 C 143.121094 309.03125 142.230469 308.371094 141.371094 307.667969 C 140.515625 306.960938 139.695312 306.21875 138.910156 305.433594 C 138.125 304.648438 137.378906 303.828125 136.675781 302.96875 C 135.972656 302.109375 135.3125 301.21875 134.695312 300.296875 C 134.078125 299.375 133.507812 298.425781 132.984375 297.445312 C 132.460938 296.464844 131.988281 295.464844 131.5625 294.4375 C 131.136719 293.414062 130.765625 292.371094 130.441406 291.308594 C 130.121094 290.246094 129.851562 289.171875 129.636719 288.082031 C 129.417969 286.992188 129.253906 285.898438 129.148438 284.792969 C 129.039062 283.6875 128.984375 282.582031 128.984375 281.472656 C 128.984375 280.363281 129.039062 279.253906 129.148438 278.148438 C 129.253906 277.046875 129.417969 275.949219 129.636719 274.859375 C 129.851562 273.773438 130.121094 272.695312 130.441406 271.636719 C 130.765625 270.574219 131.136719 269.53125 131.5625 268.503906 C 131.988281 267.480469 132.460938 266.476562 132.984375 265.496094 C 133.507812 264.519531 134.078125 263.566406 134.695312 262.644531 C 135.3125 261.722656 135.972656 260.832031 136.675781 259.972656 C 137.378906 259.117188 138.125 258.296875 138.910156 257.511719 C 139.695312 256.726562 140.515625 255.980469 141.371094 255.277344 C 142.230469 254.574219 143.121094 253.914062 144.042969 253.296875 C 144.964844 252.679688 145.917969 252.109375 146.894531 251.585938 C 147.875 251.0625 148.875 250.589844 149.902344 250.164062 C 150.925781 249.738281 151.972656 249.367188 153.035156 249.042969 C 154.09375 248.722656 155.171875 248.453125 156.257812 248.238281 C 157.347656 248.019531 158.445312 247.855469 159.546875 247.75 C 160.652344 247.640625 161.761719 247.585938 162.871094 247.585938 M 162.871094 224.996094 C 161.019531 224.996094 159.175781 225.085938 157.335938 225.265625 C 155.492188 225.449219 153.664062 225.71875 151.851562 226.078125 C 150.039062 226.441406 148.246094 226.890625 146.476562 227.425781 C 144.707031 227.964844 142.964844 228.585938 141.257812 229.292969 C 139.546875 230 137.878906 230.792969 136.246094 231.664062 C 134.617188 232.535156 133.03125 233.484375 131.492188 234.511719 C 129.953125 235.539062 128.472656 236.640625 127.042969 237.8125 C 125.613281 238.988281 124.242188 240.226562 122.933594 241.535156 C 121.625 242.84375 120.386719 244.214844 119.210938 245.644531 C 118.039062 247.074219 116.9375 248.558594 115.910156 250.09375 C 114.882812 251.632812 113.933594 253.21875 113.0625 254.847656 C 112.191406 256.480469 111.398438 258.148438 110.691406 259.859375 C 109.984375 261.566406 109.363281 263.308594 108.824219 265.078125 C 108.289062 266.847656 107.839844 268.640625 107.476562 270.453125 C 107.117188 272.269531 106.847656 274.09375 106.664062 275.9375 C 106.484375 277.777344 106.394531 279.621094 106.394531 281.472656 C 106.394531 283.320312 106.484375 285.167969 106.664062 287.007812 C 106.847656 288.847656 107.117188 290.675781 107.476562 292.488281 C 107.839844 294.304688 108.289062 296.097656 108.824219 297.867188 C 109.363281 299.636719 109.984375 301.375 110.691406 303.085938 C 111.398438 304.792969 112.191406 306.464844 113.0625 308.09375 C 113.933594 309.726562 114.882812 311.3125 115.910156 312.847656 C 116.9375 314.386719 118.039062 315.871094 119.210938 317.300781 C 120.386719 318.730469 121.625 320.097656 122.933594 321.40625 C 124.242188 322.714844 125.613281 323.957031 127.042969 325.128906 C 128.472656 326.300781 129.953125 327.402344 131.492188 328.429688 C 133.03125 329.457031 134.617188 330.40625 136.246094 331.28125 C 137.878906 332.152344 139.546875 332.941406 141.257812 333.648438 C 142.964844 334.359375 144.707031 334.980469 146.476562 335.515625 C 148.246094 336.054688 150.039062 336.503906 151.851562 336.863281 C 153.664062 337.222656 155.492188 337.496094 157.335938 337.675781 C 159.175781 337.859375 161.019531 337.949219 162.871094 337.949219 C 164.71875 337.949219 166.566406 337.859375 168.40625 337.675781 C 170.246094 337.496094 172.074219 337.222656 173.886719 336.863281 C 175.703125 336.503906 177.496094 336.054688 179.265625 335.515625 C 181.035156 334.980469 182.773438 334.359375 184.484375 333.648438 C 186.191406 332.941406 187.863281 332.152344 189.492188 331.28125 C 191.125 330.40625 192.707031 329.457031 194.246094 328.429688 C 195.785156 327.402344 197.269531 326.300781 198.699219 325.128906 C 200.128906 323.957031 201.496094 322.714844 202.804688 321.40625 C 204.113281 320.097656 205.355469 318.730469 206.527344 317.300781 C 207.699219 315.871094 208.800781 314.386719 209.828125 312.847656 C 210.855469 311.3125 211.804688 309.726562 212.679688 308.09375 C 213.550781 306.464844 214.339844 304.792969 215.046875 303.085938 C 215.753906 301.375 216.378906 299.636719 216.914062 297.867188 C 217.453125 296.097656 217.902344 294.304688 218.261719 292.488281 C 218.621094 290.675781 218.894531 288.847656 219.074219 287.007812 C 219.257812 285.167969 219.347656 283.320312 219.347656 281.472656 C 219.347656 279.621094 219.257812 277.777344 219.074219 275.9375 C 218.894531 274.09375 218.621094 272.269531 218.261719 270.453125 C 217.902344 268.640625 217.453125 266.847656 216.914062 265.078125 C 216.378906 263.308594 215.753906 261.566406 215.046875 259.859375 C 214.339844 258.148438 213.550781 256.480469 212.679688 254.847656 C 211.804688 253.21875 210.855469 251.632812 209.828125 250.09375 C 208.800781 248.558594 207.699219 247.074219 206.527344 245.644531 C 205.355469 244.214844 204.113281 242.84375 202.804688 241.535156 C 201.496094 240.226562 200.128906 238.988281 198.699219 237.8125 C 197.269531 236.640625 195.785156 235.539062 194.246094 234.511719 C 192.707031 233.484375 191.125 232.535156 189.492188 231.664062 C 187.863281 230.792969 186.191406 230 184.484375 229.292969 C 182.773438 228.585938 181.035156 227.964844 179.265625 227.425781 C 177.496094 226.890625 175.703125 226.441406 173.886719 226.078125 C 172.074219 225.71875 170.246094 225.449219 168.40625 225.265625 C 166.566406 225.085938 164.71875 224.996094 162.871094 224.996094 Z M 162.871094 224.996094 " fill-opacity="1" fill-rule="nonzero"/><g clip-path="url(#0308c677b0)"><g clip-path="url(#f57ba00085)"><g transform="matrix(1, 0, 0, 1, 122, 236)"><g clip-path="url(#1226840cc5)"><g clip-path="url(#2be35fff39)"><g clip-path="url(#ce04e3d5be)"><path fill="#071b3d" d="M 0.0390625 0.679688 L 90.710938 0.679688 L 90.710938 91.351562 L 0.0390625 91.351562 Z M 0.0390625 0.679688 " fill-opacity="1" fill-rule="nonzero"/></g></g></g></g></g></g><g clip-path="url(#44bc0499c6)"><g clip-path="url(#60866c63b3)"><g transform="matrix(1, 0, 0, 1, 249, 236)"><g clip-path="url(#9bbaebb8fb)"><g clip-path="url(#c3f38ac9dc)"><g clip-path="url(#066caca229)"><path fill="#071b3d" d="M 0.59375 0.679688 L 91.269531 0.679688 L 91.269531 91.351562 L 0.59375 91.351562 Z M 0.59375 0.679688 " fill-opacity="1" fill-rule="nonzero"/></g></g></g></g></g></g><g clip-path="url(#d3e224dd58)"><g clip-path="url(#958bb85841)"><g transform="matrix(1, 0, 0, 1, 191, 130)"><g clip-path="url(#a3b626271e)"><g clip-path="url(#12c0fdd60c)"><g clip-path="url(#76b9335af5)"><path fill="#071b3d" d="M 0.433594 0.371094 L 58.59375 0.371094 L 58.59375 67.390625 L 0.433594 67.390625 Z M 0.433594 0.371094 " fill-opacity="1" fill-rule="nonzero"/></g></g></g></g></g></g><g clip-path="url(#645150eb0f)"><g clip-path="url(#31c30e6caf)"><g transform="matrix(1, 0, 0, 1, 189, 130)"><g clip-path="url(#88e2b2f96b)"><g clip-path="url(#ea1c88e047)"><g clip-path="url(#2c2dbba89a)"><path fill="#071b3d" d="M 0.980469 0.371094 L 69.566406 0.371094 L 69.566406 68.957031 L 0.980469 68.957031 Z M 0.980469 0.371094 " fill-opacity="1" fill-rule="nonzero"/></g></g></g></g></g></g></svg>