<svg xmlns="http://www.w3.org/2000/svg" viewBox="0 0 450 450" fill="none">
  <path fill="#071b3d" d="M202.402 258.879h-67.769c-.742 0-1.476.074-2.203.218-.73.145-1.437.36-2.121.645-.683.281-1.336.629-1.953 1.043-.617.41-1.188.879-1.711 1.402-.523.527-.992 1.098-1.406 1.715-.41.613-.758 1.265-1.043 1.953-.285.683-.496 1.39-.64 2.117-.145.727-.22 1.461-.22 2.203v56.476c0 .742.075 1.476.22 2.203.144.73.355 1.434.64 2.121.285.684.633 1.336 1.043 1.953.414.617.883 1.188 1.406 1.711.523.524 1.094.992 1.711 1.406.617.41 1.27.758 1.953 1.043.684.282 1.39.496 2.121.641.727.144 1.461.218 2.203.218h67.769c.742 0 1.476-.074 2.207-.218.727-.145 1.434-.36 2.117-.641.684-.285 1.336-.633 1.953-1.043.617-.414 1.188-.882 1.711-1.406.524-.523.993-1.094 1.407-1.711.41-.617.757-1.27 1.042-1.953.286-.687.497-1.39.641-2.121.145-.727.219-1.46.219-2.203v-56.476c0-.742-.074-1.476-.219-2.203-.144-.726-.355-1.434-.641-2.117-.285-.688-.632-1.34-1.042-1.953-.414-.617-.883-1.188-1.407-1.715-.523-.523-1.094-.992-1.711-1.402-.617-.414-1.269-.762-1.953-1.043-.683-.285-1.39-.5-2.117-.645-.731-.144-1.465-.218-2.207-.218Z"/>
  <path fill="#071b3d" d="M202.402 112.039h-67.769c-.742 0-1.476.074-2.203.218-.73.145-1.437.36-2.121.641-.683.285-1.336.633-1.953 1.047-.617.41-1.188.879-1.711 1.402-.523.528-.992 1.098-1.406 1.715-.41.613-.758 1.265-1.043 1.949-.285.688-.496 1.395-.64 2.121-.145.727-.22 1.461-.22 2.203v101.66c0 .739.075 1.477.22 2.203.144.727.355 1.434.64 2.118.285.687.633 1.335 1.043 1.953.414.617.883 1.187 1.406 1.71.523.528 1.094.993 1.711 1.407.617.41 1.27.758 1.953 1.043.684.285 1.39.5 2.121.644.727.145 1.461.215 2.203.215h67.769c.742 0 1.476-.07 2.207-.215.727-.144 1.434-.36 2.117-.644.684-.285 1.336-.633 1.953-1.043.617-.414 1.188-.88 1.711-1.407.524-.523.993-1.093 1.407-1.71.41-.618.757-1.266 1.042-1.953.286-.684.497-1.39.641-2.118.145-.726.219-1.464.219-2.203v-101.66c0-.742-.074-1.476-.219-2.203-.144-.726-.355-1.433-.641-2.121-.285-.684-.632-1.336-1.042-1.949-.414-.617-.883-1.187-1.407-1.715-.523-.523-1.094-.992-1.711-1.402-.617-.414-1.269-.762-1.953-1.047-.683-.281-1.39-.496-2.117-.641-.731-.144-1.465-.218-2.207-.218Z"/>
  <path fill="#071b3d" d="M315.359 112.039h-67.773c-.742 0-1.476.074-2.203.218-.727.145-1.434.36-2.121.641-.683.285-1.336.633-1.953 1.047-.613.41-1.187.879-1.711 1.402-.523.528-.992 1.098-1.402 1.715-.414.613-.762 1.265-1.047 1.949-.281.688-.496 1.395-.641 2.121-.144.727-.218 1.461-.218 2.203v56.477c0 .742.074 1.476.218 2.203.145.726.36 1.433.641 2.121.285.683.633 1.336 1.047 1.949.41.617.879 1.191 1.402 1.715.524.523 1.098.992 1.711 1.402.617.414 1.27.762 1.953 1.047.687.281 1.394.496 2.121.641.727.144 1.461.218 2.203.218h67.773c.738 0 1.476-.074 2.203-.218.726-.145 1.433-.36 2.117-.641.688-.285 1.336-.633 1.953-1.047.617-.41 1.187-.879 1.711-1.402.527-.524.992-1.098 1.406-1.715.41-.613.758-1.266 1.043-1.949.286-.688.5-1.395.645-2.121.144-.727.215-1.461.215-2.203v-56.477c0-.742-.07-1.476-.215-2.203-.145-.726-.359-1.433-.645-2.121-.285-.684-.633-1.336-1.043-1.949-.414-.617-.879-1.187-1.406-1.715-.524-.523-1.094-.992-1.711-1.402-.617-.414-1.265-.762-1.953-1.047-.684-.281-1.39-.496-2.117-.641-.727-.144-1.465-.218-2.203-.218Z"/>
  <path fill="#071b3d" d="M315.359 213.699h-67.773c-.742 0-1.476.074-2.203.219-.727.144-1.434.355-2.121.64-.683.286-1.336.634-1.953 1.043-.613.414-1.187.883-1.711 1.407-.523.523-.992 1.094-1.402 1.711-.414.617-.762 1.269-1.047 1.953-.281.683-.496 1.39-.641 2.117-.144.73-.218 1.464-.218 2.207v101.656c0 .742.074 1.476.218 2.203.145.73.36 1.434.641 2.121.285.684.633 1.336 1.047 1.953.41.617.879 1.188 1.402 1.711.524.523 1.098.992 1.711 1.406.617.41 1.27.758 1.953 1.043.687.282 1.394.496 2.121.641.727.144 1.461.218 2.203.218h67.773c.738 0 1.476-.074 2.203-.218.726-.145 1.433-.36 2.117-.641.688-.285 1.336-.633 1.953-1.043.617-.414 1.187-.883 1.711-1.406.527-.523.992-1.094 1.406-1.711.41-.617.758-1.27 1.043-1.953.286-.687.5-1.39.645-2.121.144-.727.215-1.46.215-2.203V224.996c0-.743-.07-1.477-.215-2.207-.145-.727-.359-1.434-.645-2.117-.285-.684-.633-1.336-1.043-1.953-.414-.617-.879-1.188-1.406-1.711-.524-.524-1.094-.993-1.711-1.407-.617-.41-1.265-.757-1.953-1.043-.684-.285-1.39-.496-2.117-.64-.727-.145-1.465-.219-2.203-.219Z"/>
</svg>
