<svg xmlns="http://www.w3.org/2000/svg" viewBox="0 0 450 450" fill="none">
  <path fill="#071b3d" fill-rule="evenodd" d="M233.84 94.828c11.71 0 21.773 8.063 23.976 19.215l.98 4.957c3.852 19.492 24.645 31.133 43.98 24.621l4.923-1.66c11.062-3.726 23.297.692 29.148 10.524l8.848 14.851c5.855 9.832 3.683 22.313-5.176 29.738l-3.941 3.301c-15.489 12.98-15.489 36.262 0 49.238l3.941 3.301c8.859 7.43 11.031 19.906 5.176 29.738l-8.844 14.851c-5.855 9.836-18.09 14.25-29.152 10.524l-4.922-1.656c-19.336-6.512-40.13 5.125-43.98 24.617l-.98 4.961c-2.203 11.152-12.266 19.215-23.977 19.215h-17.687c-11.71 0-21.773-8.063-23.976-19.215l-.98-4.961c-3.852-19.492-24.649-31.129-43.985-24.617l-4.918 1.656c-11.062 3.726-23.297-.692-29.152-10.524l-8.844-14.851c-5.855-9.832-3.683-22.309 5.176-29.738l3.942-3.301c15.484-12.98 15.484-36.258 0-49.234l-3.942-3.305c-8.859-7.426-11.031-19.903-5.176-29.739l8.844-14.851c5.856-9.832 18.09-14.246 29.152-10.524l4.922 1.66c19.336 6.511 40.129-5.129 43.98-24.621l.98-4.96c2.203-11.149 12.262-19.211 23.977-19.211Zm-8.844 167.36c20.539 0 37.191-16.653 37.191-37.192 0-20.543-16.652-37.191-37.191-37.191-20.543 0-37.192 16.648-37.192 37.191 0 20.54 16.649 37.192 37.192 37.192Z"/>
</svg>
